<svg xmlns="http://www.w3.org/2000/svg" id="Capa_1" data-name="Capa 1" viewBox="0 0 91.95 27.07"><defs><style>      .cls-1 {        fill: #1d1d1b;      }    </style></defs><path class="cls-1" d="M1.83,.52c-.13,.15-.2,.4-.2,.74V10.6H5.69c.1,0,.24-.02,.43-.05s.39-.1,.61-.21c.22-.11,.43-.27,.64-.49,.21-.21,.39-.5,.53-.85l.13,.03,.11,.03,.11,.03c-.06,.27-.12,.52-.16,.75-.04,.2-.09,.39-.12,.58-.04,.19-.06,.32-.08,.39H0v-.24c.26,0,.46-.08,.6-.24,.14-.16,.21-.41,.21-.75V1.26c0-.3-.06-.53-.18-.71-.12-.18-.28-.26-.49-.26h-.13V.04H2.42V.3c-.26,0-.46,.08-.59,.23Z"></path><path class="cls-1" d="M8.63,10.81v-.26c.25,0,.46-.07,.63-.21,.17-.14,.32-.37,.46-.67L13.68,.03h.24l4.12,9.57c.13,.3,.29,.54,.46,.71,.18,.17,.39,.25,.64,.25v.26h-2.54v-.26h.16c.18,0,.32-.05,.42-.14,.1-.09,.15-.22,.15-.38,0-.06,0-.13-.02-.19-.01-.06-.04-.14-.07-.22-.03-.08-.08-.19-.13-.32-.06-.12-.13-.29-.21-.48-.52,0-1.01-.09-1.47-.24-.46-.15-.91-.3-1.33-.47s-.84-.32-1.24-.46c-.4-.14-.8-.21-1.19-.21-.3,0-.57,.04-.83,.13-.2,.48-.35,.85-.46,1.12s-.2,.48-.26,.63c-.06,.15-.09,.26-.11,.33-.01,.07-.02,.15-.02,.23,0,.21,.06,.37,.17,.48s.27,.17,.48,.17h.16v.26h-2.15Zm2.3-3.49c.22-.06,.47-.09,.73-.09,.4,0,.81,.07,1.2,.2,.4,.13,.81,.29,1.22,.45,.42,.17,.85,.32,1.3,.46,.45,.14,.92,.22,1.41,.24L13.53,1l-2.6,6.33Z"></path><path class="cls-1" d="M27.47,10.52c-.69-.26-1.27-.63-1.76-1.11-.49-.48-.87-1.05-1.14-1.72-.27-.67-.4-1.42-.4-2.24s.13-1.56,.4-2.23c.27-.67,.65-1.24,1.14-1.72,.49-.48,1.08-.85,1.76-1.11,.69-.26,1.45-.39,2.29-.39,.4,0,.8,.02,1.2,.07,.41,.04,.8,.11,1.18,.19,.38,.09,.73,.19,1.06,.31s.63,.25,.89,.4l.07,1.52h-.27c-.04-.06-.07-.13-.11-.21-.04-.08-.07-.15-.09-.22-.22-.45-.54-.83-.96-1.14-.43-.31-.89-.51-1.38-.59,0,0-.08-.02-.23-.04-.15-.02-.33-.03-.52-.04s-.37-.02-.55-.03c-.17,0-.27-.01-.3-.01-.7,0-1.34,.13-1.92,.38-.58,.25-1.07,.61-1.49,1.06-.41,.46-.73,1.01-.96,1.66-.22,.65-.34,1.36-.34,2.15s.11,1.51,.34,2.15c.22,.65,.54,1.2,.96,1.66,.41,.46,.91,.82,1.49,1.07,.58,.25,1.22,.38,1.92,.38,.18,0,.36,0,.53-.01,.17,0,.35-.02,.53-.04,.65-.07,1.23-.27,1.75-.6,.52-.33,.89-.73,1.12-1.2,.03-.06,.06-.13,.09-.22,.04-.08,.07-.15,.11-.21h.27l-.07,1.52c-.26,.14-.56,.28-.89,.4s-.69,.22-1.06,.31c-.38,.08-.77,.15-1.18,.19s-.81,.07-1.2,.07c-.84,0-1.61-.13-2.29-.39ZM34.07,1.02s-.01,.02-.01,.04l.04-.08s-.02,.03-.03,.04Z"></path><path class="cls-1" d="M46.41,11.82c-.53-.17-1.03-.39-1.49-.67-.46-.27-.89-.57-1.28-.9-.39-.33-.75-.65-1.08-.97s-.64-.61-.92-.88c-.28-.27-.53-.48-.75-.62-.3-.19-.55-.3-.76-.32-.21-.03-.39-.04-.55-.04h-2.79v2.18c0,.29,.06,.52,.19,.71,.13,.18,.3,.28,.51,.28h.12v.24h-2.49v-.24h.13c.21,0,.37-.09,.5-.28,.13-.18,.19-.42,.19-.71V1.28c0-.29-.06-.52-.19-.7-.13-.18-.29-.27-.5-.27h-.13V.05h4.95c.52,0,1,.09,1.43,.27,.43,.18,.8,.43,1.1,.75s.54,.71,.71,1.17c.17,.46,.25,.96,.25,1.51,0,.46-.07,.88-.21,1.26s-.34,.73-.6,1.04c-.26,.31-.57,.56-.94,.77-.37,.21-.78,.37-1.22,.46,.23,.05,.47,.13,.71,.24s.46,.22,.67,.35c.36,.22,.7,.47,1.02,.75,.32,.27,.64,.55,.94,.83s.61,.55,.93,.82c.31,.27,.65,.51,1,.71,.35,.21,.73,.37,1.14,.5,.41,.12,.86,.19,1.35,.19,.73,0,1.45-.14,2.17-.41,.72-.27,1.43-.63,2.13-1.08l.12,.19c-.31,.21-.65,.41-1.01,.61s-.74,.38-1.13,.54c-.4,.16-.8,.29-1.22,.39-.42,.1-.85,.15-1.28,.15-.61,0-1.18-.08-1.71-.25Zm-5.65-4.85c.4-.17,.74-.4,1.02-.71s.5-.67,.66-1.1c.16-.43,.24-.9,.24-1.41s-.06-.99-.19-1.42c-.13-.43-.3-.79-.53-1.1-.23-.31-.5-.54-.82-.71-.32-.17-.67-.26-1.06-.26h-3.28V7.21h2.64c.48,0,.93-.08,1.33-.25Zm5.01,1.42c.12-.12,.18-.33,.18-.62V1.26c0-.24-.05-.43-.15-.58-.1-.14-.24-.21-.41-.21h-.09v-.2h6.5c0,.21,0,.43,.02,.67s.02,.47,.03,.67h-.12s-.05,0-.05-.01l-.08-.16c-.15-.3-.39-.55-.7-.73-.31-.18-.66-.28-1.04-.28h-3.14V3.78h2.77c.32,0,.6-.05,.83-.15,.23-.1,.38-.24,.44-.41l.05-.09h.17v1.57h-.17l-.05-.12c-.07-.19-.22-.34-.46-.46-.23-.12-.51-.17-.82-.17h-2.77v4.66h3.23c.38,0,.74-.09,1.08-.27,.34-.18,.61-.42,.82-.73l.12-.17s.02-.01,.05-.01h.12c-.04,.2-.09,.41-.13,.64-.04,.23-.08,.44-.13,.64l-.03,.08h-6.57v-.2c.21,0,.37-.06,.48-.19Z"></path><path class="cls-1" d="M53.2,10.81v-.26c.25,0,.46-.07,.63-.21s.32-.37,.46-.67L58.24,.03h.24l4.12,9.57c.13,.3,.29,.54,.46,.71,.18,.17,.39,.25,.64,.25v.26h-2.54v-.26h.16c.18,0,.32-.05,.42-.14,.1-.09,.15-.22,.15-.38,0-.06,0-.13-.02-.19-.01-.06-.04-.14-.07-.22-.03-.08-.08-.19-.13-.32-.06-.12-.13-.29-.21-.48-.52,0-1.01-.09-1.47-.24-.46-.15-.91-.3-1.33-.47s-.84-.32-1.24-.46c-.4-.14-.8-.21-1.19-.21-.3,0-.57,.04-.83,.13-.2,.48-.35,.85-.46,1.12s-.2,.48-.26,.63c-.06,.15-.09,.26-.11,.33-.01,.07-.02,.15-.02,.23,0,.21,.06,.37,.17,.48s.27,.17,.48,.17h.16v.26h-2.15Zm2.3-3.49c.22-.06,.47-.09,.73-.09,.4,0,.81,.07,1.2,.2,.4,.13,.81,.29,1.22,.45,.42,.17,.85,.32,1.3,.46,.45,.14,.92,.22,1.41,.24l-3.27-7.59-2.6,6.33Z"></path><path class="cls-1" d="M72.94,.38c.02,.17,.04,.35,.07,.56,.02,.21,.04,.4,.07,.59,.02,.18,.04,.29,.05,.33h-.26l-.2-.4c-.21-.36-.48-.65-.83-.88-.35-.22-.71-.34-1.08-.34h-3.61V9.58c0,.3,.06,.54,.18,.72s.29,.26,.49,.26h.12v.24h-2.44v-.24c.26,0,.46-.08,.6-.24s.21-.41,.21-.75V.24h-2.22c-.37,0-.72,.11-1.07,.34-.35,.22-.62,.52-.83,.88l-.2,.4h-.26s.01-.15,.03-.33c.02-.18,.04-.38,.07-.59,.02-.21,.04-.39,.07-.56s.04-.25,.05-.25V.04h10.93v.09s.04,.08,.06,.25Zm-1.04,3v.26c-.26,0-.46,.08-.6,.23s-.21,.4-.21,.74v4.98c0,.3,.06,.54,.18,.72s.29,.26,.49,.26h.13v.24h-2.31v-.24c.26,0,.46-.08,.59-.24,.13-.16,.2-.41,.2-.75V4.6c0-.3-.06-.53-.18-.71s-.28-.26-.49-.26h-.12v-.26h2.31Z"></path><path class="cls-1" d="M84.25,.04V.3c-.25,0-.46,.07-.63,.21-.17,.14-.32,.37-.46,.67l-3.96,9.62h-.24l-4.12-9.56c-.13-.3-.29-.54-.46-.71-.18-.17-.39-.25-.64-.25V.04h2.54V.3h-.16c-.18,0-.32,.04-.42,.13s-.15,.21-.15,.38c0,.13,.04,.29,.11,.46l3.69,8.59,3.43-8.37c.08-.19,.12-.37,.12-.54,0-.21-.06-.37-.17-.48s-.27-.17-.48-.17h-.16V.04h2.15Z"></path><path class="cls-1" d="M81.44,10.81v-.26c.25,0,.46-.07,.63-.21s.32-.37,.46-.67L86.49,.03h.24l4.12,9.57c.13,.3,.29,.54,.46,.71,.18,.17,.39,.25,.64,.25v.26h-2.54v-.26h.16c.18,0,.32-.05,.42-.14,.1-.09,.15-.22,.15-.38,0-.06,0-.13-.02-.19-.01-.06-.04-.14-.07-.22-.03-.08-.08-.19-.13-.32-.06-.12-.13-.29-.21-.48-.52,0-1.01-.09-1.47-.24-.46-.15-.91-.3-1.33-.47s-.84-.32-1.24-.46c-.4-.14-.8-.21-1.19-.21-.3,0-.57,.04-.83,.13-.2,.48-.35,.85-.46,1.12s-.2,.48-.26,.63c-.06,.15-.09,.26-.11,.33-.01,.07-.02,.15-.02,.23,0,.21,.06,.37,.17,.48s.27,.17,.48,.17h.16v.26h-2.15Zm2.3-3.49c.22-.06,.47-.09,.73-.09,.4,0,.81,.07,1.2,.2,.4,.13,.81,.29,1.22,.45,.42,.17,.85,.32,1.3,.46,.45,.14,.92,.22,1.41,.24l-3.27-7.59-2.6,6.33Z"></path><path class="cls-1" d="M12.6,21.39c-.2,.45-.48,.83-.85,1.16s-.8,.57-1.31,.75c-.51,.17-1.07,.26-1.68,.26h-2.64v2.18c0,.29,.06,.52,.19,.71,.13,.18,.29,.28,.5,.28h.13v.24h-2.49v-.24h.13c.21,0,.37-.09,.5-.28,.13-.18,.19-.42,.19-.71v-8.32c0-.29-.06-.52-.19-.7-.13-.18-.29-.27-.5-.27h-.13v-.26h4.95c.52,0,.99,.09,1.42,.27,.43,.18,.79,.43,1.1,.75,.31,.32,.54,.71,.71,1.17,.17,.46,.26,.96,.26,1.51s-.1,1.04-.3,1.49Zm-2.5,1.72c.4-.17,.74-.4,1.02-.71,.28-.3,.5-.67,.66-1.1s.24-.89,.24-1.41-.06-1-.19-1.43c-.13-.43-.3-.8-.53-1.1-.23-.3-.5-.54-.82-.71-.32-.17-.67-.26-1.06-.26h-3.28v6.96h2.64c.48,0,.93-.08,1.33-.25Z"></path><path class="cls-1" d="M21.68,26.45c-.06,.31-.1,.48-.11,.51h-7.89v-.26c.26,0,.46-.08,.6-.23,.14-.15,.21-.4,.21-.74v-8.32c0-.3-.06-.53-.19-.71-.13-.18-.29-.26-.5-.26h-.12v-.26h7.79c0,.26,0,.54,.03,.83,.02,.29,.03,.57,.04,.83h-.22l-.09-.23c-.18-.38-.46-.68-.85-.9s-.81-.33-1.27-.33h-3.82v4.08h3.36c.4,0,.75-.06,1.04-.18s.47-.28,.54-.49l.05-.12h.22v1.91h-.22l-.05-.13c-.09-.23-.28-.42-.56-.56s-.62-.22-1.02-.22h-3.36v6.08h3.94c.46,0,.9-.11,1.31-.33,.42-.22,.75-.52,.99-.9l.16-.21h.2c-.09,.45-.17,.83-.23,1.13Z"></path><path class="cls-1" d="M31.85,26.97h-.47c-.16,0-.31-.01-.44-.04-.13-.03-.26-.08-.4-.16-.13-.08-.28-.2-.44-.35s-.36-.36-.59-.61c-.23-.26-.5-.57-.82-.94s-.7-.82-1.15-1.34c-.06,0-.13,.01-.19,.01h-2.83v2.19c0,.29,.06,.52,.19,.7,.13,.18,.29,.27,.5,.27h.13v.26h-2.49v-.26h.12c.22,0,.39-.09,.51-.27,.13-.18,.19-.41,.19-.7v-8.32c0-.3-.06-.53-.19-.71-.13-.18-.3-.27-.51-.27h-.12v-.24h4.94c.52,0,1,.09,1.43,.27,.43,.18,.8,.43,1.1,.75,.31,.32,.54,.71,.71,1.16s.26,.95,.26,1.5c0,.45-.07,.86-.2,1.25-.13,.38-.33,.72-.58,1.02s-.55,.56-.9,.77c-.35,.21-.74,.37-1.18,.48,.68,.82,1.23,1.45,1.64,1.91,.41,.46,.73,.8,.96,1.02,.23,.22,.4,.36,.5,.41,.11,.05,.21,.07,.3,.07h.04v.16Zm-3.38-3.88c.4-.17,.74-.4,1.03-.71,.29-.3,.51-.67,.67-1.1,.16-.43,.24-.89,.24-1.41s-.06-.99-.19-1.42c-.13-.43-.3-.79-.53-1.1-.23-.3-.5-.54-.83-.71-.32-.17-.68-.26-1.06-.26h-3.27v6.94h2.62c.48,0,.93-.08,1.33-.25Z"></path><path class="cls-1" d="M32.56,26.96v-.26c.26,0,.46-.08,.59-.23,.13-.15,.2-.4,.2-.74v-8.32c0-.3-.06-.53-.18-.71-.12-.18-.28-.26-.49-.26h-.12v-.26h8.28c0,.26,0,.54,.02,.83,.01,.29,.02,.57,.03,.83h-.22l-.09-.23c-.18-.38-.46-.68-.85-.9s-.81-.33-1.27-.33h-4.29v4.06h3.22c.39,0,.74-.06,1.02-.18s.47-.29,.54-.49l.05-.13h.22v1.92h-.22l-.05-.15c-.08-.22-.26-.41-.55-.55s-.62-.22-1.01-.22h-3.22v5.07c0,.34,.09,.59,.26,.74s.4,.23,.7,.23v.26h-2.57Z"></path><path class="cls-1" d="M49.63,26.45c-.06,.31-.1,.48-.11,.51h-7.89v-.26c.26,0,.46-.08,.6-.23,.14-.15,.21-.4,.21-.74v-8.32c0-.3-.06-.53-.19-.71-.13-.18-.29-.26-.5-.26h-.12v-.26h7.79c0,.26,0,.54,.03,.83,.02,.29,.03,.57,.04,.83h-.22l-.09-.23c-.18-.38-.46-.68-.85-.9s-.81-.33-1.27-.33h-3.82v4.08h3.36c.4,0,.75-.06,1.04-.18s.47-.28,.54-.49l.05-.12h.22v1.91h-.22l-.05-.13c-.09-.23-.28-.42-.56-.56s-.62-.22-1.02-.22h-3.36v6.08h3.94c.46,0,.9-.11,1.31-.33,.42-.22,.75-.52,.99-.9l.16-.21h.2c-.09,.45-.17,.83-.23,1.13Z"></path><path class="cls-1" d="M53.9,26.68c-.69-.26-1.27-.63-1.76-1.11-.49-.48-.87-1.05-1.14-1.72-.27-.67-.4-1.42-.4-2.24s.13-1.56,.4-2.23c.27-.67,.65-1.24,1.14-1.72,.49-.48,1.08-.85,1.76-1.11,.69-.26,1.45-.39,2.29-.39,.4,0,.8,.02,1.2,.07s.8,.11,1.18,.19c.38,.09,.73,.19,1.06,.31s.63,.25,.89,.4l.07,1.52h-.27c-.04-.06-.07-.13-.11-.21-.04-.08-.07-.15-.09-.22-.22-.45-.54-.83-.96-1.14-.43-.31-.89-.51-1.38-.59,0,0-.08-.02-.23-.04-.15-.02-.33-.03-.52-.04s-.37-.02-.55-.03c-.17,0-.27-.01-.3-.01-.7,0-1.34,.13-1.92,.38-.58,.25-1.07,.61-1.49,1.06-.41,.46-.73,1.01-.96,1.66-.22,.65-.34,1.36-.34,2.15s.11,1.51,.34,2.15c.22,.65,.54,1.2,.96,1.66,.41,.46,.91,.82,1.49,1.07,.58,.25,1.22,.38,1.92,.38,.18,0,.36,0,.53-.01,.17,0,.35-.02,.53-.04,.65-.07,1.23-.27,1.75-.6,.52-.33,.89-.73,1.12-1.2,.03-.06,.06-.13,.09-.22,.04-.08,.07-.15,.11-.21h.27l-.07,1.52c-.26,.14-.56,.28-.89,.4s-.69,.22-1.06,.31c-.38,.08-.77,.15-1.18,.19s-.81,.07-1.2,.07c-.84,0-1.61-.13-2.29-.39Zm6.6-9.5s-.01,.02-.01,.04l.04-.08s-.02,.03-.03,.04Z"></path><path class="cls-1" d="M71.37,16.54c.02,.17,.05,.35,.07,.56,.03,.21,.05,.4,.07,.59,.02,.18,.03,.29,.03,.32h-.26l-.2-.39c-.21-.37-.48-.66-.83-.88-.35-.22-.7-.33-1.06-.33h-2.22v9.34c0,.3,.06,.53,.18,.71,.12,.18,.29,.26,.49,.26h.12v.26h-2.44v-.26c.26,0,.46-.08,.6-.23s.21-.4,.21-.74v-9.34h-2.22c-.36,0-.71,.11-1.06,.33-.35,.22-.63,.51-.83,.88l-.2,.39h-.26s.01-.14,.03-.32,.05-.37,.07-.58c.03-.21,.05-.39,.07-.56s.04-.25,.05-.25v-.09h9.52v.09s.04,.08,.06,.25Z"></path><path class="cls-1" d="M70,26.96v-.26c.25,0,.46-.07,.63-.21,.17-.14,.32-.37,.46-.67l3.96-9.64h.24l4.12,9.57c.13,.3,.29,.54,.46,.71,.18,.17,.39,.25,.64,.25v.26h-2.54v-.26h.16c.18,0,.32-.05,.42-.14,.1-.09,.15-.22,.15-.38,0-.06,0-.13-.02-.19-.01-.06-.04-.14-.07-.22-.03-.08-.08-.19-.13-.32-.06-.13-.13-.29-.21-.49-.52,0-1.01-.09-1.47-.24-.46-.15-.91-.3-1.33-.47s-.84-.32-1.24-.46c-.4-.14-.8-.21-1.19-.21-.3,0-.57,.04-.83,.13-.2,.47-.35,.85-.46,1.12s-.2,.48-.26,.63c-.06,.15-.09,.26-.11,.33-.01,.07-.02,.15-.02,.23,0,.21,.06,.37,.17,.48s.27,.17,.48,.17h.16v.26h-2.15Zm2.3-3.49c.22-.06,.47-.09,.73-.09,.4,0,.81,.07,1.2,.2,.4,.13,.81,.29,1.22,.45,.42,.17,.85,.32,1.3,.46,.45,.14,.92,.22,1.41,.24l-3.27-7.59-2.6,6.33Z"></path></svg>